<mxfile host="app.diagrams.net" modified="2024-05-23T11:56:00.032Z" agent="Mozilla/5.0 (Windows NT 10.0; Win64; x64) AppleWebKit/537.36 (KHTML, like Gecko) Chrome/125.0.0.0 Safari/537.36" etag="iLuUlOEDnmn5BOT1YFA-" version="24.4.6" type="device">
  <diagram name="Page-1" id="f0-JxNh6v5zv6YK1dhp0">
    <mxGraphModel dx="1867" dy="723" grid="1" gridSize="10" guides="1" tooltips="1" connect="1" arrows="1" fold="1" page="1" pageScale="1" pageWidth="850" pageHeight="1100" math="0" shadow="0">
      <root>
        <mxCell id="0" />
        <mxCell id="1" parent="0" />
        <mxCell id="qoQozbX5sWy6TS3NihrV-7" style="edgeStyle=orthogonalEdgeStyle;rounded=0;orthogonalLoop=1;jettySize=auto;html=1;exitX=0;exitY=0.5;exitDx=0;exitDy=0;entryX=1;entryY=0.5;entryDx=0;entryDy=0;" edge="1" parent="1" source="qoQozbX5sWy6TS3NihrV-1" target="qoQozbX5sWy6TS3NihrV-2">
          <mxGeometry relative="1" as="geometry">
            <Array as="points">
              <mxPoint x="370" y="300" />
              <mxPoint x="370" y="340" />
              <mxPoint x="230" y="340" />
              <mxPoint x="230" y="300" />
            </Array>
          </mxGeometry>
        </mxCell>
        <mxCell id="qoQozbX5sWy6TS3NihrV-8" value="Gives vaccine&amp;nbsp;&lt;div&gt;related info&lt;/div&gt;" style="edgeLabel;html=1;align=center;verticalAlign=middle;resizable=0;points=[];" vertex="1" connectable="0" parent="qoQozbX5sWy6TS3NihrV-7">
          <mxGeometry x="0.035" y="-2" relative="1" as="geometry">
            <mxPoint as="offset" />
          </mxGeometry>
        </mxCell>
        <mxCell id="qoQozbX5sWy6TS3NihrV-9" style="edgeStyle=orthogonalEdgeStyle;rounded=0;orthogonalLoop=1;jettySize=auto;html=1;exitX=1;exitY=0.5;exitDx=0;exitDy=0;" edge="1" parent="1" source="qoQozbX5sWy6TS3NihrV-1" target="qoQozbX5sWy6TS3NihrV-3">
          <mxGeometry relative="1" as="geometry" />
        </mxCell>
        <mxCell id="qoQozbX5sWy6TS3NihrV-10" value="Gives citizens vaccine info" style="edgeLabel;html=1;align=center;verticalAlign=middle;resizable=0;points=[];" vertex="1" connectable="0" parent="qoQozbX5sWy6TS3NihrV-9">
          <mxGeometry x="-0.0519" relative="1" as="geometry">
            <mxPoint as="offset" />
          </mxGeometry>
        </mxCell>
        <mxCell id="qoQozbX5sWy6TS3NihrV-1" value="Arogya setu App" style="ellipse;whiteSpace=wrap;html=1;" vertex="1" parent="1">
          <mxGeometry x="380" y="250" width="120" height="100" as="geometry" />
        </mxCell>
        <mxCell id="qoQozbX5sWy6TS3NihrV-2" value="Citizens" style="rounded=1;whiteSpace=wrap;html=1;" vertex="1" parent="1">
          <mxGeometry x="100" y="270" width="120" height="60" as="geometry" />
        </mxCell>
        <mxCell id="qoQozbX5sWy6TS3NihrV-12" style="edgeStyle=orthogonalEdgeStyle;rounded=0;orthogonalLoop=1;jettySize=auto;html=1;entryX=1;entryY=1;entryDx=0;entryDy=0;" edge="1" parent="1" source="qoQozbX5sWy6TS3NihrV-3" target="qoQozbX5sWy6TS3NihrV-1">
          <mxGeometry relative="1" as="geometry">
            <Array as="points">
              <mxPoint x="680" y="410" />
              <mxPoint x="483" y="410" />
            </Array>
          </mxGeometry>
        </mxCell>
        <mxCell id="qoQozbX5sWy6TS3NihrV-13" value="Checks citizens vaccine dose info&lt;div&gt;&lt;br&gt;&lt;/div&gt;" style="edgeLabel;html=1;align=center;verticalAlign=middle;resizable=0;points=[];" vertex="1" connectable="0" parent="qoQozbX5sWy6TS3NihrV-12">
          <mxGeometry x="-0.1342" y="-1" relative="1" as="geometry">
            <mxPoint x="-19" y="11" as="offset" />
          </mxGeometry>
        </mxCell>
        <mxCell id="qoQozbX5sWy6TS3NihrV-3" value="Government" style="rounded=1;whiteSpace=wrap;html=1;" vertex="1" parent="1">
          <mxGeometry x="680" y="270" width="120" height="60" as="geometry" />
        </mxCell>
        <mxCell id="qoQozbX5sWy6TS3NihrV-4" value="Health worker" style="rounded=1;whiteSpace=wrap;html=1;" vertex="1" parent="1">
          <mxGeometry x="380" y="70" width="120" height="60" as="geometry" />
        </mxCell>
        <mxCell id="qoQozbX5sWy6TS3NihrV-5" value="" style="endArrow=classic;html=1;rounded=0;entryX=0;entryY=0;entryDx=0;entryDy=0;exitX=1;exitY=0.25;exitDx=0;exitDy=0;" edge="1" parent="1" source="qoQozbX5sWy6TS3NihrV-2" target="qoQozbX5sWy6TS3NihrV-1">
          <mxGeometry width="50" height="50" relative="1" as="geometry">
            <mxPoint x="250" y="280" as="sourcePoint" />
            <mxPoint x="300" y="230" as="targetPoint" />
            <Array as="points">
              <mxPoint x="250" y="250" />
              <mxPoint x="300" y="240" />
            </Array>
          </mxGeometry>
        </mxCell>
        <mxCell id="qoQozbX5sWy6TS3NihrV-6" value="Ask personal vaccine&lt;div&gt;&amp;nbsp;info&lt;/div&gt;" style="edgeLabel;html=1;align=center;verticalAlign=middle;resizable=0;points=[];" vertex="1" connectable="0" parent="qoQozbX5sWy6TS3NihrV-5">
          <mxGeometry x="0.0182" y="4" relative="1" as="geometry">
            <mxPoint as="offset" />
          </mxGeometry>
        </mxCell>
        <mxCell id="qoQozbX5sWy6TS3NihrV-14" value="" style="endArrow=classic;html=1;rounded=0;exitX=0.419;exitY=1.036;exitDx=0;exitDy=0;exitPerimeter=0;entryX=0.5;entryY=0;entryDx=0;entryDy=0;" edge="1" parent="1" source="qoQozbX5sWy6TS3NihrV-4" target="qoQozbX5sWy6TS3NihrV-1">
          <mxGeometry width="50" height="50" relative="1" as="geometry">
            <mxPoint x="480" y="220" as="sourcePoint" />
            <mxPoint x="530" y="170" as="targetPoint" />
            <Array as="points">
              <mxPoint x="370" y="180" />
            </Array>
          </mxGeometry>
        </mxCell>
        <mxCell id="qoQozbX5sWy6TS3NihrV-15" value="Asks registered&lt;div&gt;&lt;div&gt;&amp;nbsp;citizens for doses&lt;div&gt;&lt;br&gt;&lt;/div&gt;&lt;/div&gt;&lt;/div&gt;" style="edgeLabel;html=1;align=center;verticalAlign=middle;resizable=0;points=[];" vertex="1" connectable="0" parent="qoQozbX5sWy6TS3NihrV-14">
          <mxGeometry x="-0.0141" y="-3" relative="1" as="geometry">
            <mxPoint as="offset" />
          </mxGeometry>
        </mxCell>
        <mxCell id="qoQozbX5sWy6TS3NihrV-16" value="" style="endArrow=classic;html=1;rounded=0;entryX=0.892;entryY=1.022;entryDx=0;entryDy=0;entryPerimeter=0;" edge="1" parent="1" target="qoQozbX5sWy6TS3NihrV-4">
          <mxGeometry width="50" height="50" relative="1" as="geometry">
            <mxPoint x="470" y="260" as="sourcePoint" />
            <mxPoint x="520" y="210" as="targetPoint" />
            <Array as="points">
              <mxPoint x="530" y="200" />
            </Array>
          </mxGeometry>
        </mxCell>
        <mxCell id="qoQozbX5sWy6TS3NihrV-17" value="Gives registered&amp;nbsp;&lt;div&gt;citizens doses info&lt;/div&gt;" style="edgeLabel;html=1;align=center;verticalAlign=middle;resizable=0;points=[];" vertex="1" connectable="0" parent="qoQozbX5sWy6TS3NihrV-16">
          <mxGeometry x="0.197" relative="1" as="geometry">
            <mxPoint as="offset" />
          </mxGeometry>
        </mxCell>
      </root>
    </mxGraphModel>
  </diagram>
</mxfile>
